<?xml version="1.0" standalone="no"?>
<!DOCTYPE svg PUBLIC "-//W3C//DTD SVG 20010904//EN"
 "http://www.w3.org/TR/2001/REC-SVG-20010904/DTD/svg10.dtd">
<svg version="1.0" xmlns="http://www.w3.org/2000/svg"
 width="100.000000pt" height="100.000000pt" viewBox="0 0 100.000000 100.000000"
 preserveAspectRatio="xMidYMid meet">

<g transform="translate(0.000000,100.000000) scale(0.100000,-0.100000)"
fill="#000000" stroke="none">
<path d="M216 984 c-9 -8 -16 -26 -16 -40 0 -23 -3 -24 -64 -24 -45 0 -69 -5
-80 -16 -14 -13 -16 -66 -16 -424 0 -358 2 -411 16 -424 14 -14 68 -16 444
-16 376 0 430 2 444 16 14 13 16 66 16 424 0 358 -2 411 -16 424 -11 11 -35
16 -80 16 -61 0 -64 1 -64 24 0 33 -25 56 -60 56 -35 0 -60 -23 -60 -56 l0
-24 -180 0 -180 0 0 24 c0 33 -25 56 -60 56 -16 0 -36 -7 -44 -16z m64 -84 c0
-53 -2 -60 -20 -60 -18 0 -20 7 -20 60 0 53 2 60 20 60 18 0 20 -7 20 -60z
m480 0 c0 -53 -2 -60 -20 -60 -18 0 -20 7 -20 60 0 53 2 60 20 60 18 0 20 -7
20 -60z m-560 -44 c0 -33 25 -56 60 -56 35 0 60 23 60 56 l0 24 180 0 180 0 0
-24 c0 -33 25 -56 60 -56 35 0 60 23 60 56 0 23 3 24 60 24 l60 0 0 -70 0 -70
-420 0 -420 0 0 70 0 70 60 0 c57 0 60 -1 60 -24z m720 -466 l0 -310 -420 0
-420 0 0 310 0 310 420 0 420 0 0 -310z"/>
<path d="M200 390 l0 -230 300 0 300 0 0 230 0 230 -300 0 -300 0 0 -230z
m140 140 l0 -50 -50 0 -50 0 0 50 0 50 50 0 50 0 0 -50z m140 0 l0 -50 -50 0
-50 0 0 50 0 50 50 0 50 0 0 -50z m140 0 l0 -50 -50 0 -50 0 0 50 0 50 50 0
50 0 0 -50z m140 0 l0 -50 -50 0 -50 0 0 50 0 50 50 0 50 0 0 -50z m-420 -140
l0 -50 -50 0 -50 0 0 50 0 50 50 0 50 0 0 -50z m140 0 l0 -50 -50 0 -50 0 0
50 0 50 50 0 50 0 0 -50z m280 0 l0 -50 -50 0 -50 0 0 50 0 50 50 0 50 0 0
-50z m-420 -140 l0 -50 -50 0 -50 0 0 50 0 50 50 0 50 0 0 -50z m140 0 l0 -50
-50 0 -50 0 0 50 0 50 50 0 50 0 0 -50z m140 0 l0 -50 -50 0 -50 0 0 50 0 50
50 0 50 0 0 -50z m140 0 l0 -50 -50 0 -50 0 0 50 0 50 50 0 50 0 0 -50z"/>
</g>
</svg>
