<?xml version="1.0" standalone="no"?>
<!DOCTYPE svg PUBLIC "-//W3C//DTD SVG 20010904//EN"
 "http://www.w3.org/TR/2001/REC-SVG-20010904/DTD/svg10.dtd">
<svg version="1.0" xmlns="http://www.w3.org/2000/svg"
 width="320.000000pt" height="320.000000pt" viewBox="0 0 320.000000 320.000000"
 preserveAspectRatio="xMidYMid meet">

<g transform="translate(0.000000,320.000000) scale(0.100000,-0.100000)"
fill="#000000" stroke="none">
<path d="M2889 2854 c-59 -74 -206 -190 -236 -186 -13 2 -23 10 -23 18 0 8 10
19 23 24 l22 9 -22 0 c-23 1 -48 -32 -38 -49 3 -6 18 -10 32 -10 l27 0 -26
-27 c-14 -16 -29 -38 -32 -50 -9 -28 15 -75 50 -98 l27 -17 -28 36 c-15 20
-27 47 -27 60 0 32 35 78 91 117 25 18 83 68 128 112 l82 79 37 -28 38 -29
-21 30 c-11 17 -30 38 -40 48 -19 17 -21 16 -64 -39z"/>
<path d="M2810 2880 c-14 -27 -5 -40 28 -39 24 2 24 2 5 6 -13 2 -23 11 -23
19 0 8 10 19 23 24 l22 9 -22 0 c-13 1 -27 -8 -33 -19z"/>
<path d="M2715 2800 c-15 -16 -15 -22 -5 -35 14 -17 36 -20 45 -5 3 5 0 7 -8
4 -23 -9 -31 15 -11 37 9 10 13 19 7 19 -5 0 -18 -9 -28 -20z"/>
<path d="M2835 2690 c-71 -71 -137 -130 -144 -130 -12 0 -12 -3 -3 -12 10 -10
43 18 155 130 78 78 137 142 132 141 -6 0 -68 -58 -140 -129z"/>
<path d="M3001 2775 c-1 -5 -64 -70 -142 -143 -77 -74 -134 -132 -125 -130 23
5 277 259 272 272 -2 6 -5 7 -5 1z"/>
<path d="M2489 2443 c-13 -16 -12 -17 4 -4 9 7 17 15 17 17 0 8 -8 3 -21 -13z"/>
<path d="M2035 2109 c-236 -177 -440 -327 -451 -335 -20 -14 -27 -11 -90 37
-103 78 -184 113 -264 113 -108 1 -166 -45 -246 -195 -82 -155 -161 -214 -307
-230 -165 -18 -268 -64 -366 -162 -80 -80 -124 -167 -141 -276 -33 -210 30
-389 195 -557 67 -68 95 -89 175 -127 199 -97 353 -101 525 -16 92 45 126 76
45 40 -97 -43 -160 -54 -264 -49 -228 12 -446 177 -538 407 -20 49 -23 74 -23
201 l0 145 39 80 c78 159 193 240 390 275 119 21 205 56 254 103 18 18 52 67
74 110 47 90 118 174 165 193 85 36 202 -1 329 -105 l61 -50 419 341 c397 322
465 379 454 378 -3 -1 -198 -145 -435 -321z"/>
<path d="M1117 1388 c-52 -91 -42 -183 28 -254 104 -103 261 -80 336 51 30 51
37 116 19 160 -5 12 -6 -1 -3 -35 6 -70 -23 -128 -86 -174 -37 -27 -51 -31
-105 -31 -53 0 -69 5 -105 29 -88 61 -119 171 -72 251 12 21 20 40 17 42 -2 3
-15 -15 -29 -39z"/>
<path d="M817 1072 c-15 -16 -8 -25 88 -127 57 -61 104 -105 105 -98 0 7 -41
56 -92 108 -82 86 -90 99 -80 116 15 24 1 25 -21 1z"/>
</g>
</svg>
