<?xml version="1.0" standalone="no"?>
<!DOCTYPE svg PUBLIC "-//W3C//DTD SVG 20010904//EN"
 "http://www.w3.org/TR/2001/REC-SVG-20010904/DTD/svg10.dtd">
<svg version="1.0" xmlns="http://www.w3.org/2000/svg"
 width="48.000000pt" height="48.000000pt" viewBox="0 0 48.000000 48.000000"
 preserveAspectRatio="xMidYMid meet">

<g transform="translate(0.000000,48.000000) scale(0.100000,-0.100000)"
fill="#000000" stroke="none">
<path d="M172 439 c-69 -20 -142 -122 -142 -199 0 -142 158 -249 288 -194 110
45 162 174 113 279 -46 99 -150 145 -259 114z m128 -19 c40 -11 104 -71 119
-113 15 -39 14 -101 -2 -140 -8 -18 -32 -49 -55 -69 -143 -129 -371 32 -297
210 40 95 135 140 235 112z"/>
<path d="M169 331 c-26 -26 -29 -36 -29 -91 0 -55 3 -65 29 -91 24 -23 38 -29
74 -29 38 0 49 5 71 31 27 32 33 49 16 49 -5 0 -10 -4 -10 -10 0 -24 -41 -50
-79 -50 -53 0 -81 34 -81 100 0 66 28 100 81 100 38 0 79 -26 79 -50 0 -5 5
-10 10 -10 17 0 11 17 -16 49 -22 26 -33 31 -71 31 -36 0 -50 -6 -74 -29z"/>
</g>
</svg>
