<?xml version="1.0" standalone="no"?>
<!DOCTYPE svg PUBLIC "-//W3C//DTD SVG 20010904//EN"
 "http://www.w3.org/TR/2001/REC-SVG-20010904/DTD/svg10.dtd">
<svg version="1.0" xmlns="http://www.w3.org/2000/svg"
 width="500.000000pt" height="500.000000pt" viewBox="0 0 500.000000 500.000000"
 preserveAspectRatio="xMidYMid meet">

<g transform="translate(0.000000,500.000000) scale(0.100000,-0.100000)"
fill="#000000" stroke="none">
<path d="M2340 4064 c-242 -29 -411 -79 -612 -180 -165 -83 -273 -160 -417
-299 -110 -106 -125 -131 -123 -204 1 -49 -3 -62 -42 -120 -155 -236 -247
-511 -264 -786 l-7 -110 -48 -26 c-114 -62 -199 -165 -237 -287 -18 -59 -20
-93 -20 -396 0 -321 1 -333 24 -397 53 -150 168 -261 320 -308 53 -16 94 -21
186 -21 105 0 121 2 151 23 72 47 69 21 69 712 0 570 -1 623 -18 655 -27 54
-65 70 -187 77 l-107 6 7 71 c11 113 34 234 62 326 31 104 115 283 177 379 42
66 48 71 81 71 49 0 80 19 145 85 155 160 354 288 565 362 246 86 557 96 823
27 223 -58 454 -195 637 -377 91 -91 132 -117 182 -117 24 0 35 -11 75 -77
128 -211 198 -424 223 -684 l6 -66 -105 -5 c-120 -7 -157 -22 -187 -78 -18
-33 -19 -69 -19 -653 0 -680 -1 -663 61 -708 30 -21 47 -24 141 -27 128 -4
196 8 286 53 108 54 192 148 236 263 20 54 21 78 24 396 3 318 2 343 -17 406
-37 121 -124 228 -239 290 l-47 26 -7 106 c-16 266 -112 558 -253 772 -41 62
-45 73 -40 111 10 62 -14 106 -108 202 -240 247 -566 421 -902 484 -106 20
-389 33 -475 23z"/>
<path d="M2341 2453 c-17 -15 -148 -393 -263 -761 -6 -19 -14 -30 -19 -25 -5
5 -20 92 -34 193 -35 258 -45 309 -62 325 -20 21 -77 19 -95 -2 -9 -10 -42
-75 -76 -145 l-60 -126 -107 -4 c-98 -3 -108 -5 -126 -27 -24 -29 -24 -53 0
-82 18 -23 27 -24 151 -27 152 -4 170 2 201 74 19 42 39 58 39 31 0 -18 25
-202 54 -395 26 -175 37 -202 86 -202 56 0 46 -24 266 648 42 128 79 230 83
227 3 -4 51 -158 107 -343 88 -297 103 -339 125 -351 47 -26 74 -9 112 71 19
39 37 66 41 60 4 -6 34 -127 66 -267 33 -141 62 -260 65 -265 10 -16 60 -27
83 -19 27 10 29 15 192 422 l123 307 89 0 c81 0 91 2 113 25 30 29 32 55 6 86
-18 23 -25 24 -151 24 -124 0 -133 -1 -150 -22 -9 -12 -61 -131 -114 -265 -98
-246 -111 -276 -119 -268 -3 3 -32 122 -66 264 -34 143 -66 265 -72 272 -13
16 -51 22 -78 12 -20 -7 -48 -57 -83 -148 -13 -34 -17 -26 -73 165 -147 498
-154 520 -176 537 -27 23 -51 23 -78 1z"/>
</g>
</svg>
