<?xml version="1.0" standalone="no"?>
<!DOCTYPE svg PUBLIC "-//W3C//DTD SVG 20010904//EN"
 "http://www.w3.org/TR/2001/REC-SVG-20010904/DTD/svg10.dtd">
<svg version="1.0" xmlns="http://www.w3.org/2000/svg"
 width="500.000000pt" height="500.000000pt" viewBox="0 0 500.000000 500.000000"
 preserveAspectRatio="xMidYMid meet">

<g transform="translate(0.000000,500.000000) scale(0.100000,-0.100000)"
fill="#000000" stroke="none">
<path d="M1044 4985 c-134 -29 -240 -113 -297 -233 -31 -66 -32 -69 -35 -249
l-4 -183 -95 0 c-162 0 -183 -25 -183 -227 0 -109 3 -133 20 -160 28 -47 55
-57 160 -60 l95 -3 3 -180 2 -180 -109 0 c-102 0 -112 -2 -138 -24 l-28 -24
-3 -152 c-5 -228 3 -240 170 -240 l108 0 0 -179 0 -179 -111 -4 -111 -3 -29
-33 -29 -32 0 -156 0 -156 34 -34 34 -34 106 0 106 0 0 -180 0 -180 -100 0
c-170 0 -180 -12 -180 -229 l0 -151 29 -32 29 -33 111 -3 111 -4 0 -179 0
-179 -106 0 c-116 0 -136 -6 -159 -50 -17 -34 -22 -291 -5 -334 18 -47 53 -60
164 -61 l101 0 6 -165 c5 -150 8 -170 32 -223 56 -124 146 -198 286 -236 l79
-21 1553 2 1554 3 66 23 c124 42 219 134 265 257 18 48 19 128 22 2200 2 2115
2 2151 -17 2215 -45 149 -173 259 -335 289 -94 17 -3091 14 -3172 -4z m2603
-1947 c-4 -376 -7 -824 -7 -996 l0 -312 -40 -44 c-50 -54 -137 -101 -226 -122
-103 -24 -296 -16 -389 16 -94 33 -182 94 -222 154 -28 41 -33 57 -33 108 0
102 61 182 184 239 97 45 168 59 298 59 l118 0 0 503 c0 277 -2 506 -5 508 -6
6 -1104 -176 -1112 -185 -4 -4 -9 -352 -11 -774 l-4 -767 -25 -32 c-35 -46
-111 -91 -201 -120 -99 -33 -280 -37 -382 -9 -133 36 -240 107 -280 187 -42
82 -16 198 58 259 103 85 246 130 414 130 l108 0 0 800 c0 440 2 800 5 800 4
0 987 161 1530 250 94 16 183 29 199 29 l29 1 -6 -682z"/>
</g>
</svg>
