<?xml version="1.0" standalone="no"?>
<!DOCTYPE svg PUBLIC "-//W3C//DTD SVG 20010904//EN"
 "http://www.w3.org/TR/2001/REC-SVG-20010904/DTD/svg10.dtd">
<svg version="1.0" xmlns="http://www.w3.org/2000/svg"
 width="500.000000pt" height="500.000000pt" viewBox="0 0 500.000000 500.000000"
 preserveAspectRatio="xMidYMid meet">

<g transform="translate(0.000000,500.000000) scale(0.100000,-0.100000)"
fill="#000000" stroke="none">
<path d="M2005 4985 c-444 -62 -723 -324 -816 -767 -53 -253 -11 -656 102
-985 176 -509 478 -763 909 -763 366 0 635 180 825 554 157 309 243 835 190
1161 -66 408 -313 683 -700 779 -146 36 -345 44 -510 21z"/>
<path d="M1339 2560 c-53 -28 -175 -75 -324 -127 -339 -117 -441 -216 -545
-531 -83 -255 -169 -802 -171 -1087 -1 -187 18 -207 272 -293 327 -112 786
-208 1234 -258 196 -23 573 -22 779 0 82 9 151 18 153 19 1 2 -17 39 -42 83
-199 348 -213 775 -38 1129 58 117 138 228 229 319 222 222 533 356 827 356
48 0 87 4 87 9 0 5 -30 37 -68 72 -80 76 -162 119 -363 188 -151 52 -248 90
-312 123 l-38 19 -72 -67 c-135 -124 -277 -204 -455 -252 -89 -24 -113 -26
-292 -26 -179 0 -203 2 -292 26 -178 48 -328 132 -457 254 -38 35 -70 64 -72
64 -2 -1 -20 -10 -40 -20z m921 -1006 c0 -14 -4 -23 -9 -20 -5 3 -7 15 -4 26
7 28 13 25 13 -6z m-35 -103 c-18 -37 -23 -56 -16 -68 7 -14 11 -12 25 15 9
17 20 48 25 69 l9 38 1 -45 c0 -28 -9 -68 -25 -105 -14 -33 -28 -70 -31 -81
-3 -12 -56 -86 -119 -165 -63 -79 -129 -174 -148 -211 -31 -62 -35 -65 -49
-50 -25 27 -57 104 -57 137 0 17 9 48 19 70 28 61 206 282 313 387 l48 47 -21
-42 c-20 -42 -20 -42 0 -17 11 14 26 38 32 53 6 15 14 26 16 23 2 -2 -7 -27
-22 -55z m-430 -164 c-8 -20 -15 -41 -15 -47 0 -18 18 -11 25 11 4 11 9 19 11
17 2 -2 -3 -24 -10 -49 -17 -55 -5 -86 14 -39 7 17 17 33 21 36 5 3 4 -6 -3
-20 -16 -36 -3 -44 22 -15 l20 24 -10 -27 c-5 -15 -18 -44 -28 -65 -11 -21
-22 -51 -26 -68 -7 -29 -8 -29 -23 -10 -8 11 -26 43 -39 70 -39 83 -28 214 18
199 11 -3 20 1 24 11 4 9 8 14 10 12 3 -2 -3 -20 -11 -40z m494 -90 c2 -72
-42 -169 -142 -309 -52 -73 -104 -152 -116 -175 -24 -48 -32 -54 -24 -20 4 17
3 19 -6 7 -8 -12 -13 -8 -26 22 -8 21 -15 50 -15 65 1 36 32 104 72 157 124
161 212 265 221 259 6 -4 8 0 4 10 -3 8 0 27 6 41 12 25 12 25 19 3 3 -12 6
-39 7 -60z"/>
<path d="M2263 1226 c4 -10 -2 -34 -13 -56 -22 -43 -25 -60 -11 -60 11 0 41
73 41 100 0 10 -5 22 -12 26 -8 5 -9 2 -5 -10z"/>
<path d="M2236 1183 c-6 -14 -5 -15 5 -6 7 7 10 15 7 18 -3 3 -9 -2 -12 -12z"/>
<path d="M3573 1915 c-251 -45 -471 -184 -619 -391 -55 -76 -127 -228 -148
-310 -37 -144 -39 -343 -4 -482 36 -147 125 -306 237 -424 293 -309 729 -393
1109 -213 120 57 200 114 287 206 156 165 244 356 263 573 30 335 -111 655
-379 861 -204 158 -490 227 -746 180z m246 -386 c20 -11 48 -36 61 -56 23 -34
25 -46 29 -190 l3 -153 141 0 c163 0 210 -14 249 -78 50 -81 19 -191 -66 -231
-37 -18 -61 -21 -184 -21 l-142 0 0 -120 c0 -184 -16 -234 -91 -279 -70 -43
-176 -16 -220 56 -22 35 -24 51 -28 191 l-3 152 -142 0 c-130 0 -147 2 -186
23 -50 26 -90 90 -90 142 0 52 40 116 90 142 39 21 56 23 186 23 l142 0 3 153
c4 139 6 155 28 190 45 72 145 98 220 56z"/>
</g>
</svg>
