<?xml version="1.0" standalone="no"?>
<!DOCTYPE svg PUBLIC "-//W3C//DTD SVG 20010904//EN"
 "http://www.w3.org/TR/2001/REC-SVG-20010904/DTD/svg10.dtd">
<svg version="1.0" xmlns="http://www.w3.org/2000/svg"
 width="512.000000pt" height="512.000000pt" viewBox="0 0 512.000000 512.000000"
 preserveAspectRatio="xMidYMid meet">
<metadata>
Created by potrace 1.16, written by Peter Selinger 2001-2019
</metadata>
<g transform="translate(0.000000,512.000000) scale(0.100000,-0.100000)"
fill="#000000" stroke="none">
<path d="M2103 5100 c-58 -23 -141 -93 -173 -145 -22 -35 -455 -1200 -508
-1365 -94 -294 -136 -553 -152 -935 -10 -218 -16 -275 -40 -366 l-11 -39 -56
0 c-105 0 -118 -11 -391 -337 -136 -161 -255 -310 -264 -331 -39 -85 -14 -211
56 -276 l33 -31 -298 -394 c-287 -378 -299 -397 -299 -439 0 -96 103 -137 174
-69 19 17 158 197 311 399 l276 368 252 -212 c139 -116 307 -257 374 -312 67
-56 122 -104 122 -107 1 -3 -32 -48 -72 -100 -204 -264 -207 -268 -207 -310 0
-57 42 -99 98 -99 22 0 48 3 57 6 9 4 75 84 147 178 72 94 134 174 137 178 4
4 29 -4 55 -17 76 -39 176 -31 242 17 41 31 493 567 522 620 16 30 22 58 22
105 0 79 -19 126 -73 181 -39 40 -41 44 -27 65 42 65 112 197 127 239 9 27 20
48 23 48 3 0 14 -21 23 -48 15 -42 85 -174 127 -239 14 -21 12 -25 -27 -65
-54 -55 -73 -102 -73 -181 0 -47 6 -75 23 -105 28 -53 480 -589 521 -620 66
-48 166 -56 242 -17 26 13 51 21 55 17 3 -4 65 -84 137 -178 72 -94 138 -174
147 -178 9 -3 35 -6 57 -6 56 0 98 42 98 99 0 42 -3 46 -207 310 -40 52 -73
97 -72 100 0 3 69 63 152 132 84 69 252 210 374 312 l222 187 290 -384 c160
-212 301 -392 313 -400 38 -27 95 -21 129 13 23 24 29 38 29 74 0 42 -12 59
-299 438 l-298 394 35 34 c19 19 43 53 53 75 24 53 24 148 1 198 -9 21 -128
170 -264 331 -273 326 -286 337 -390 337 -55 0 -57 1 -67 33 -23 72 -33 163
-41 372 -13 338 -58 646 -102 692 -47 50 -143 33 -169 -29 -10 -25 -10 -45 0
-102 36 -210 52 -355 61 -571 9 -225 28 -370 65 -491 6 -18 -53 -70 -402 -363
l-408 -342 -19 23 c-65 80 -164 337 -192 498 -24 141 -15 396 20 545 26 109
26 113 26 523 0 366 2 418 17 449 44 93 175 98 229 9 18 -29 19 -60 22 -463
l3 -431 26 -26 c20 -21 35 -26 73 -26 55 0 94 30 104 81 10 51 7 788 -4 853
-18 113 -86 208 -182 255 -26 12 -49 30 -52 39 -33 110 -227 901 -232 944 -12
106 52 188 148 188 53 0 103 -29 129 -75 10 -17 77 -192 150 -390 73 -198 139
-370 147 -382 8 -13 32 -28 54 -35 57 -17 107 10 127 67 13 40 13 42 -133 433
-80 217 -155 409 -166 428 -34 54 -116 121 -178 144 -47 18 -73 21 -147 18
-79 -3 -98 -8 -153 -38 -59 -31 -93 -62 -134 -120 l-18 -25 -17 25 c-42 58
-76 89 -135 121 -57 30 -72 33 -158 36 -77 3 -105 -1 -147 -17z m213 -210 c50
-32 78 -98 70 -168 -5 -43 -199 -834 -232 -944 -3 -9 -26 -27 -52 -39 -96 -47
-164 -142 -182 -255 -11 -65 -14 -802 -4 -853 10 -51 49 -81 104 -81 38 0 53
5 73 26 l26 26 3 431 c3 403 4 434 22 463 54 89 185 84 229 -9 15 -31 17 -83
17 -449 0 -410 0 -414 26 -523 35 -150 44 -396 20 -541 -28 -164 -126 -420
-192 -502 l-19 -23 -408 342 c-348 292 -407 346 -402 363 37 121 56 266 65
487 13 344 58 621 144 884 54 168 473 1293 491 1321 41 62 137 83 201 44z
m342 -761 c51 -204 92 -372 90 -372 -91 -44 -142 -85 -177 -143 -11 -19 -11
-19 -22 0 -35 58 -86 99 -177 143 -5 2 182 743 188 743 3 0 47 -167 98 -371z
m-905 -2563 c394 -330 547 -464 545 -477 -3 -21 -443 -548 -463 -556 -16 -6
-1128 924 -1133 947 -2 14 433 544 461 562 14 8 -55 64 590 -476z m2441 199
c125 -148 225 -276 224 -285 -5 -23 -1117 -953 -1133 -947 -20 8 -460 535
-463 556 -4 23 1115 964 1133 953 7 -4 115 -128 239 -277z"/>
<path d="M407 4886 c-36 -33 -44 -87 -20 -128 26 -45 608 -358 666 -358 57 0
97 43 97 103 0 28 -7 52 -17 65 -10 12 -153 93 -319 181 -330 177 -355 185
-407 137z"/>
<path d="M4305 4749 c-165 -88 -308 -169 -317 -181 -11 -13 -18 -37 -18 -65 0
-36 6 -50 29 -74 54 -53 71 -47 411 134 251 134 308 168 323 195 40 68 -8 152
-87 152 -34 0 -95 -29 -341 -161z"/>
<path d="M3478 3781 c-28 -25 -33 -36 -33 -76 0 -40 5 -51 33 -76 37 -33 77
-37 122 -14 37 19 50 43 50 90 0 47 -13 71 -50 90 -45 23 -85 19 -122 -14z"/>
<path d="M26 3744 c-37 -38 -37 -110 0 -148 l27 -26 370 0 371 0 28 27 c23 22
28 35 28 73 0 38 -5 51 -28 73 l-28 27 -371 0 -370 0 -27 -26z"/>
<path d="M4297 3742 c-21 -22 -27 -38 -27 -72 0 -34 6 -50 27 -72 l27 -28 372
0 371 0 27 26 c37 38 37 110 0 148 l-27 26 -371 0 -372 0 -27 -28z"/>
<path d="M840 2843 c-56 -22 -542 -288 -557 -305 -12 -13 -18 -35 -18 -65 0
-38 5 -49 33 -74 56 -50 73 -45 359 108 142 76 271 150 288 164 25 23 30 35
30 73 0 36 -6 51 -26 71 -25 26 -80 40 -109 28z"/>
<path d="M4205 2841 c-39 -17 -60 -51 -60 -98 0 -37 5 -49 30 -72 17 -14 146
-88 288 -164 286 -153 303 -158 359 -108 29 25 33 35 32 75 -1 29 -8 53 -19
66 -26 29 -541 301 -578 306 -18 2 -41 0 -52 -5z"/>
</g>
</svg>
