<?xml version="1.0" standalone="no"?>
<!DOCTYPE svg PUBLIC "-//W3C//DTD SVG 20010904//EN"
 "http://www.w3.org/TR/2001/REC-SVG-20010904/DTD/svg10.dtd">
<svg version="1.0" xmlns="http://www.w3.org/2000/svg"
 width="500.000000pt" height="500.000000pt" viewBox="0 0 500.000000 500.000000"
 preserveAspectRatio="xMidYMid meet">

<g transform="translate(0.000000,500.000000) scale(0.100000,-0.100000)"
fill="#000000" stroke="none">
<path d="M1795 4146 c-81 -26 -132 -60 -210 -140 -149 -152 -227 -359 -251
-668 l-7 -88 -272 0 c-251 0 -273 -1 -288 -18 -22 -24 -21 -55 1 -75 16 -15
51 -17 289 -17 l270 0 7 -92 c3 -50 6 -104 6 -120 l0 -28 -278 0 c-258 0 -280
-1 -295 -18 -33 -36 -12 -90 36 -94 12 0 140 0 284 2 l261 2 6 -53 c3 -30 7
-84 9 -121 l3 -68 -286 0 c-242 0 -289 -2 -308 -16 -25 -17 -29 -51 -8 -80 14
-18 30 -19 313 -21 l298 -2 3 -115 3 -116 -293 0 c-250 0 -297 -2 -316 -16
-28 -19 -29 -57 -2 -84 19 -19 33 -20 320 -20 l300 0 0 -115 0 -115 -300 0
c-287 0 -301 -1 -320 -20 -27 -27 -26 -65 2 -84 19 -14 66 -16 315 -16 l293 0
0 -42 c0 -57 -36 -296 -49 -331 l-11 -29 -41 61 c-150 225 -507 247 -687 43
-13 -15 -38 -56 -55 -92 -91 -187 13 -404 231 -482 79 -28 214 -28 299 -1 78
26 181 99 234 165 101 129 174 378 191 658 l3 45 1518 5 c1489 5 1519 5 1533
24 19 27 18 52 -6 76 -20 20 -33 20 -1530 20 l-1510 0 0 115 0 115 190 0 191
0 25 25 c15 15 23 32 20 41 -3 9 -6 19 -6 23 0 23 -62 31 -234 31 l-183 0 -7
77 c-3 42 -6 93 -6 115 l0 38 1506 0 c1115 0 1511 3 1527 11 42 23 49 57 17
89 -20 20 -33 20 -1539 20 l-1518 0 -6 68 c-4 37 -7 91 -7 120 l0 52 203 0
c218 0 227 2 227 50 0 56 -17 60 -237 60 l-200 0 -7 46 c-3 26 -6 80 -6 120
l0 74 1539 0 1540 0 15 22 c21 30 20 44 -4 68 -20 20 -33 20 -1555 20 l-1535
0 0 63 c1 109 41 336 67 380 3 5 21 -18 39 -51 100 -177 330 -255 532 -180
129 48 213 133 248 254 46 158 -43 325 -216 408 -59 28 -76 31 -175 33 -71 2
-124 -2 -150 -11z"/>
<path d="M2081 3013 c-43 -21 -71 -67 -71 -118 0 -103 111 -168 197 -115 90
55 93 168 4 227 -40 27 -83 29 -130 6z"/>
<path d="M2400 2880 c-26 -26 -25 -52 1 -76 20 -18 53 -19 1069 -19 1016 0
1049 1 1069 19 26 24 27 50 1 76 -20 20 -33 20 -1070 20 -1037 0 -1050 0
-1070 -20z"/>
<path d="M2105 2289 c-48 -13 -86 -60 -92 -112 -10 -82 46 -147 126 -147 112
0 176 112 115 205 -29 45 -96 69 -149 54z"/>
<path d="M2372 2184 c-25 -17 -29 -51 -8 -80 14 -19 37 -19 1091 -19 1054 0
1077 0 1091 19 19 27 18 52 -6 76 -20 20 -33 20 -1083 20 -945 0 -1065 -2
-1085 -16z"/>
</g>
</svg>
