<?xml version="1.0" standalone="no"?>
<!DOCTYPE svg PUBLIC "-//W3C//DTD SVG 20010904//EN"
 "http://www.w3.org/TR/2001/REC-SVG-20010904/DTD/svg10.dtd">
<svg version="1.0" xmlns="http://www.w3.org/2000/svg"
 width="512.000000pt" height="512.000000pt" viewBox="0 0 512.000000 512.000000"
 preserveAspectRatio="xMidYMid meet">

<g transform="translate(0.000000,512.000000) scale(0.100000,-0.100000)"
fill="#000000" stroke="none">
<path d="M3832 4845 c-328 -60 -615 -267 -773 -560 -90 -166 -129 -325 -129
-520 0 -304 110 -567 324 -780 193 -191 443 -300 717 -312 312 -14 581 85 802
296 269 257 390 610 332 970 -37 227 -133 416 -299 589 -160 166 -368 277
-595 317 -104 18 -279 18 -379 0z m298 -467 c84 -44 81 -20 78 -620 -3 -518
-3 -527 -24 -555 -64 -86 -184 -86 -248 0 -20 27 -21 41 -24 352 l-3 324 -34
-20 c-46 -27 -115 -27 -159 0 -57 36 -82 118 -56 187 15 39 285 310 334 334
53 26 81 25 136 -2z"/>
<path d="M69 4517 c-19 -12 -42 -38 -52 -57 -16 -33 -17 -126 -15 -1620 l3
-1585 24 -34 c47 -65 -64 -61 1666 -61 l1576 0 505 -437 c278 -241 515 -443
527 -450 32 -18 97 -16 137 5 22 12 44 35 58 62 l22 44 0 1037 0 1037 -73 -23
c-154 -49 -231 -60 -427 -60 -207 0 -282 12 -454 72 -157 54 -267 115 -401
219 -250 193 -422 461 -501 778 -34 135 -44 405 -21 541 32 180 100 365 187
507 l30 48 -1379 0 -1378 0 -34 -23z m1755 -631 c53 -22 90 -78 90 -137 0 -55
-20 -90 -74 -126 l-33 -23 -544 0 c-482 0 -549 2 -579 16 -109 52 -109 210 0
264 40 19 60 20 574 20 433 0 539 -3 566 -14z m200 -600 c53 -22 90 -78 90
-137 0 -55 -20 -90 -74 -126 l-33 -23 -644 0 c-574 0 -649 2 -679 16 -109 52
-109 210 0 264 40 19 59 20 674 20 518 0 639 -3 666 -14z m-300 -600 c53 -22
90 -78 90 -137 0 -55 -20 -90 -74 -126 l-33 -23 -494 0 c-436 0 -499 2 -529
16 -109 52 -109 210 0 264 39 19 60 20 524 20 390 0 489 -3 516 -14z m1200
-600 c53 -22 90 -78 90 -137 0 -55 -20 -90 -74 -126 l-33 -23 -1094 0 c-990 0
-1098 2 -1129 16 -109 52 -109 210 0 264 40 20 58 20 1124 20 903 0 1088 -2
1116 -14z"/>
</g>
</svg>
