<?xml version="1.0" encoding="iso-8859-1"?><!-- Generator: Adobe Illustrator 21.1.0, SVG Export Plug-In . SVG Version: 6.00 Build 0)  --><svg xmlns="http://www.w3.org/2000/svg" xmlns:xlink="http://www.w3.org/1999/xlink" viewBox="0 0 50 50" width="50px" height="50px"><path style="fill:none;stroke:#000000;stroke-width:2.0178;stroke-linecap:round;stroke-linejoin:round;stroke-miterlimit:10;" d="M25,3C12.808,3,3,12.808,3,25s9.808,22,22,22s22-9.808,22-22S37.192,3,25,3z"/><path style="fill:none;stroke:#000000;stroke-width:2;stroke-miterlimit:10;" d="M38.998,23c-0.344,0-0.692-0.089-1.011-0.275c-5.226-3.068-11.58-3.719-15.99-3.725c-0.021,0-0.042,0-0.063,0c-5.333,0-9.44,0.938-9.481,0.948c-1.078,0.247-2.151-0.419-2.401-1.495c-0.25-1.075,0.417-2.149,1.492-2.4C11.729,16.01,16.117,15,21.934,15c0.023,0,0.046,0,0.069,0c4.905,0.007,12.011,0.753,18.01,4.275c0.953,0.56,1.271,1.785,0.712,2.737C40.352,22.647,39.684,23,38.998,23z"/><path style="fill:none;stroke:#000000;stroke-width:2;stroke-miterlimit:10;" d="M36.281,30.001c-0.31,0-0.624-0.083-0.906-0.26c-4.484-2.794-9.092-3.385-13.062-3.35c-4.482,0.04-8.066,0.895-8.127,0.913c-0.907,0.258-1.861-0.272-2.12-1.183c-0.259-0.913,0.272-1.862,1.184-2.12c0.277-0.079,3.854-0.959,8.751-1c4.465-0.037,10.029,0.61,15.191,3.826c0.805,0.501,1.051,1.561,0.549,2.366C37.415,29.715,36.854,30.001,36.281,30.001z"/><path style="fill:none;stroke:#000000;stroke-width:2;stroke-miterlimit:10;" d="M33.499,36.001c-0.286,0-0.575-0.081-0.831-0.252C30.194,34.1,27,33,22.5,33.001c-3.714,0.001-6.498,0.914-6.526,0.923c-0.784,0.266-1.635-0.162-1.897-0.948s0.163-1.636,0.949-1.897c0.132-0.044,3.279-1.076,7.474-1.077C27,30,30.868,30.944,34.332,33.253c0.689,0.46,0.875,1.391,0.416,2.08C34.459,35.767,33.984,36.001,33.499,36.001z"/></svg>